#!OML:ASF H:\Terrain\Walking\May29\JustinRory\Justin.ASF
:FULLY-SPECIFIED
:DEGREES
75
root 12.6939 17.2702 2.04812 -146.527 -57.0641 160.052
lowerback 21.4656 -4.51126 -6.73664
upperback 4.13421 -7.48855 6.74206
thorax -5.53796 -3.82801 13.3006
lowerneck -6.75458 -10.9106 -19.784
upperneck 10.5501 -14.3166 13.0177
head 6.69613 -7.02959 5.98653
rclavicle 4.69132e-014 -4.92986e-014
rhumerus 9.77266 4.19719 -63.1211
rradius 81.0185
rwrist -54.006
rhand 3.41086 20.9216
rfingers 7.12502
rthumb 28.8531 -6.86731
lclavicle 4.69132e-014 -4.92986e-014
lhumerus 35.1265 -44.5351 89.595
lradius 53.6973
lwrist 6.8672
lhand -6.77892 41.3071
lfingers 7.12502
lthumb 19.0834 70.3909
rfemur -44.6365 -4.9286 -2.6791
rtibia 39.2832
rfoot -6.51699 2.36401
rtoes -20.9002
lfemur -18.7708 18.5337 -22.5869
ltibia 37.2984
lfoot -19.0748 6.99122
ltoes -9.2914
76
root 12.6848 17.2778 2.06614 -146.696 -56.7481 160.558
lowerback 21.5588 -4.83999 -6.70586
upperback 4.03543 -7.91382 6.85619
thorax -5.56801 -4.03401 13.5265
lowerneck -7.08603 -10.5189 -20.0501
upperneck 10.6409 -13.6524 12.8054
head 6.67216 -6.72418 6.03509
rclavicle -9.54166e-014 1.09729e-013
rhumerus 9.74499 6.00677 -63.2902
rradius 82.3084
rwrist -53.1825
rhand 2.47777 20.7504
rfingers 7.12502
rthumb 27.9614 -7.18722
lclavicle -9.54166e-014 1.09729e-013
lhumerus 36.6279 -43.4724 89.0104
lradius 52.3109
lwrist 6.43866
lhand -5.5841 40.6852
lfingers 7.12502
lthumb 20.2321 69.6516
rfemur -44.9226 -4.64319 -2.69446
rtibia 38.9591
rfoot -6.38397 2.52542
rtoes -19.0109
lfemur -18.9237 18.3327 -22.5765
ltibia 37.6648
lfoot -19.1674 6.789
ltoes -10.1517
77
root 12.6699 17.2668 2.08337 -146.697 -56.2474 160.763
lowerback 21.6086 -5.0839 -6.91718
upperback 3.95293 -8.28173 6.8527
thorax -5.55497 -4.20942 13.7359
lowerneck -7.33699 -10.1287 -20.1327
upperneck 10.7402 -13.0154 12.4894
head 6.62124 -6.43483 6.02024
rclavicle -2.14687e-014 1.00187e-013
rhumerus 10.8589 7.50754 -63.5734
rradius 82.2797
rwrist -52.7233
rhand 2.00952 20.817
rfingers 7.12502
rthumb 27.5137 -7.19269
lclavicle -2.14687e-014 1.00187e-013
lhumerus 37.8534 -42.6152 88.4508
lradius 51.043
lwrist 5.52865
lhand -5.68365 40.2943
lfingers 7.12502
lthumb 20.1364 69.2707
rfemur -45.1183 -4.47679 -2.90474
rtibia 38.5719
rfoot -6.21515 2.93603
rtoes -17.9959
lfemur -18.9753 18.3873 -22.7903
ltibia 38.0792
lfoot -18.8741 6.22863
ltoes -10.5646
78
root 12.6499 17.2611 2.0961 -147.177 -55.7889 161.346
lowerback 21.7026 -5.11252 -6.79074
upperback 3.96834 -8.3007 6.72351
thorax -5.62244 -4.21335 13.5271
lowerneck -7.6977 -9.97438 -19.7776
upperneck 11.057 -12.7475 12.1003
head 6.68705 -6.30798 5.85726
rclavicle 6.91771e-014 2.94201e-014
rhumerus 11.0147 8.31264 -63.9866
rradius 82.7721
rwrist -52.5806
rhand 1.39928 21.1935
rfingers 7.12502
rthumb 26.9299 -6.90769
lclavicle 6.91771e-014 2.94201e-014
lhumerus 39.2132 -42.7271 87.4394
lradius 50.034
lwrist 5.39404
lhand -6.8081 40.696
lfingers 7.12502
lthumb 19.0554 69.7825
rfemur -45.1195 -4.17522 -2.83427
rtibia 38.1497
rfoot -6.06937 3.19572
rtoes -18.5257
lfemur -18.7973 18.4791 -22.6843
ltibia 38.5754
lfoot -18.8669 5.75735
ltoes -12.1732
79
root 12.6326 17.2724 2.116 -147.899 -55.5652 162.264
lowerback 21.8174 -5.26486 -6.369
upperback 3.99157 -8.41736 6.72264
thorax -5.6887 -4.27484 13.3185
lowerneck -8.1982 -9.7906 -19.5797
upperneck 11.3182 -12.3777 11.675
head 6.75318 -6.13602 5.71399
rclavicle 7.87187e-014 -6.36111e-014
rhumerus 11.0293 9.2627 -64.5321
rradius 83.448
rwrist -52.4744
rhand 0.654858 21.8029
rfingers 7.12502
rthumb 26.2175 -6.40622
lclavicle 7.87187e-014 -6.36111e-014
lhumerus 40.7819 -42.6776 86.2981
lradius 48.8914
lwrist 5.53627
lhand -7.09576 40.505
lfingers 7.12502
lthumb 18.7787 69.6186
rfemur -45.1278 -3.97667 -2.41305
rtibia 37.7476
rfoot -5.8945 3.373
rtoes -18.5115
lfemur -18.7305 18.3404 -22.2862
ltibia 39.1157
lfoot -19.1723 5.24101
ltoes -12.1334
80
root 12.6207 17.2859 2.14228 -148.11 -55.2944 162.6
lowerback 21.9251 -5.39521 -6.32504
upperback 3.98179 -8.58597 6.73144
thorax -5.71627 -4.35754 13.3561
lowerneck -8.39042 -9.57529 -19.4374
upperneck 11.2108 -12.0006 11.349
head 6.66055 -5.96193 5.62671
rclavicle -2.78299e-014 1.51076e-014
rhumerus 11.0166 9.95935 -65.1518
rradius 83.9852
rwrist -51.9566
rhand 0.499221 22.6356
rfingers 7.12502
rthumb 26.0685 -5.59558
lclavicle -2.78299e-014 1.51076e-014
lhumerus 42.2185 -42.2861 85.774
lradius 47.5507
lwrist 5.25832
lhand -5.29728 38.773
lfingers 7.12502
lthumb 20.5078 67.7099
rfemur -45.1587 -4.10165 -2.25987
rtibia 37.3483
rfoot -5.61728 3.7031
rtoes -18.4594
lfemur -18.7855 18.2312 -22.2823
ltibia 39.6659
lfoot -18.9642 4.56145
ltoes -11.1382
